<?xml version="1.0" encoding="UTF-8" standalone="no"?>
<!DOCTYPE svg PUBLIC "-//W3C//DTD SVG 1.1//EN" "http://www.w3.org/Graphics/SVG/1.1/DTD/svg11.dtd">
<svg width="100%" height="100%" viewBox="0 0 4961 3508" version="1.1" xmlns="http://www.w3.org/2000/svg" xmlns:xlink="http://www.w3.org/1999/xlink" xml:space="preserve" xmlns:serif="http://www.serif.com/" style="fill-rule:evenodd;clip-rule:evenodd;stroke-linejoin:round;stroke-miterlimit:2;">
    <g transform="matrix(5.11235,0,0,5.11235,109.323047,210.883477)">
        <path d="M339.689,464.686C327.912,489.836 276.367,521.539 256.77,476.384C253.529,468.916 253.372,481.628 236.838,493.938C209.546,514.258 177.35,501.681 185.104,448.443C185.888,443.064 188.952,422.023 201.447,382.483C204.835,371.762 223.829,372.254 224,387.504C224.272,411.718 205.712,450.859 213.36,476.546C216.234,486.197 230.789,485.433 250.093,451.273C269.06,417.71 288.07,363.313 341.284,386.995C346.356,389.253 347.469,391.943 348.691,388.585C357.979,363.066 380.226,376.687 377.029,397.435C365.919,469.55 364.62,470.487 366.518,471.302C366.966,471.494 378.03,463.004 380.833,460.949C398.352,448.107 399.252,448.447 399.95,444.574C406.389,408.851 442.514,355.907 486.26,386.844C489.211,388.932 490.193,390.978 491.783,387.633C498.012,374.528 517.342,374.18 516.83,393.501C516.188,417.737 509.195,437.507 507.043,463.466C506.995,464.042 504.692,471.665 508.45,468.426C508.593,468.302 527.999,450.171 539.144,440.114C542.432,437.148 543.096,415.432 548.842,382.57C549.21,380.463 562.511,277.776 601.204,252.06C629.03,233.566 654.027,257.86 690.599,252.808C697.754,251.82 667.665,236.767 662.323,186.514C660.122,165.815 665.294,92.763 748.435,73.28C824.791,55.387 902.55,146.689 857.187,227.315C848.24,243.216 832.519,255.424 832.533,256.498C832.605,261.856 871.003,268.204 874.45,268.774C887.601,270.949 910.159,273.761 924.216,303.628C930.781,317.578 915.574,322.171 910.941,310.312C905.713,296.932 908.159,287.054 854.56,280.066C834.533,277.455 823.616,269.411 821.333,267.729C815.53,263.454 802.368,284.456 754.546,279.158C720.737,275.413 711.31,263.538 705.576,264.849C670.167,272.95 645.009,259.713 644.051,264.383C643.493,267.1 653.711,307.601 602.904,389.753C577.619,430.638 563.751,426.114 566.988,454.447C570.594,486 590.549,480.867 593.404,480.133C597.215,479.152 613.542,474.953 633.276,451.321C638.817,444.686 634.082,441.756 638.255,418.447C652.606,338.297 747.657,327.26 721.104,408.375C709.33,444.344 664.638,451.183 664.132,453.394C663.518,456.072 671.019,501.747 712.186,470.086C739.985,448.706 762.14,411.654 760.337,405.55C759.44,402.512 750.275,380.065 772.863,361.971C802.101,338.549 843.894,363.673 834.694,383.595C828.608,396.775 813.566,369.939 800.404,374.193C791.768,376.984 785.652,387.162 787.308,394.539C792.096,415.876 804.04,420.425 815.867,445.356C820.934,456.035 855.419,414.56 866.291,431.628C870.454,438.163 851.942,452.254 833.637,459.815C828.176,462.07 827.328,461.368 827.048,463.438C826.739,465.728 838.296,496.148 811.275,520.232C786.43,542.377 748.398,533.175 739.771,502.435C731.792,474.006 774.978,461.511 779.429,460.223C786.315,458.23 793.09,457.783 791.654,454.438C789.135,448.566 773.72,424.933 771.888,427.852C768.178,433.763 760.14,454.846 728.203,482.123C712.223,495.771 687.64,506.632 671.406,501.854C643.26,493.571 641.862,467.302 637.856,472.8C617.946,500.121 555.915,528.22 543.202,468.569C542.765,466.516 543.783,459.276 538.725,463.757C504.679,493.922 502.987,493.121 502.25,498.462C495.852,544.811 484.021,607.81 434.454,601.822C416.862,599.696 390.267,578.868 408.771,545.651C425.666,515.322 474.871,494.982 475.754,491.595C476.064,490.407 475.751,490.371 478.424,476.488C482.185,456.947 471.617,494.687 431.472,497.183C417.877,498.029 405.754,491.121 400.127,475.637C398.969,472.452 398.586,470.872 395.847,472.963C385.396,480.945 385.554,480.996 375.135,489.006C365.326,496.547 363.438,495.732 362.238,504.448C361.465,510.063 356.894,563.322 324.18,590.102C281.706,624.873 223.113,574.633 297.808,517.898C317.564,502.893 337.571,495.78 337.924,492.569C339.439,478.793 339.285,478.831 341.052,467.49C341.372,465.431 341.743,464.572 339.689,464.686L289.982,474.004C289.999,474.016 298.011,483.259 313.125,471.042C323.68,462.511 349.396,427.422 344.206,412.596C340.277,401.371 322.187,392.102 300.622,413.621C280.627,433.574 280.767,461.508 287.798,471.289C288.476,472.232 289.304,473.061 289.982,474.004L339.689,464.686L483.008,405.973C452.094,380.589 427.353,429.936 427.086,459.501C426.881,482.261 447.068,485.606 469.902,453.792C493.847,420.429 488.353,412.933 483.008,405.973L339.689,464.686L611.015,276.089C584.829,308.619 578.795,368.805 570.751,397.523C569.083,403.477 577.143,392.413 578.086,391.188C622.913,332.984 640.186,240.789 611.015,276.089L339.689,464.686L774.007,200.004C748.889,223.316 728.299,258.635 730.272,260.731C730.481,260.953 739.633,264.074 741.311,262.321C741.446,262.179 772.831,197.183 846.404,170.238C847.128,169.973 854.327,167.336 854.859,165.623C855.319,164.138 854.833,155.316 851.514,155.648C845.27,156.272 808.748,165.87 774.007,200.004L339.689,464.686L778.002,232.07C775.985,234.409 763.815,248.522 755.877,263.695C753.499,268.241 767.662,271.299 775.049,261.152C781.94,251.686 783.877,239.433 822.25,212.149C841.774,198.267 859.987,198.494 855.092,182.629C854.401,180.389 852.662,179.417 827.538,192.573C799.289,207.365 781.31,228.231 778.002,232.07L339.689,464.686L715.033,200.883C728.944,218.77 742.524,224.373 745.215,213.429C746.632,207.67 722.31,202.607 704.589,137.475C700.358,121.924 701.149,114.194 697.654,117.683C683.483,131.829 684.968,134.225 690.794,153.4C692.033,157.481 699.415,181.777 715.033,200.883L339.689,464.686L452.925,527.996C408.209,569.747 429.194,578.472 433.438,579.709C435.02,580.171 461.907,596.087 473.761,519.548C473.827,519.122 474.73,513.292 472.448,514.312C464.916,517.679 453.263,527.713 452.925,527.996L339.689,464.686L309.088,578.01C309.688,577.411 312.021,575.701 316.054,570.19C326.812,555.492 334.048,524.125 334.298,517.513C334.412,514.488 328.471,519.338 327.246,520.104C271.607,554.881 280.894,576.989 290.493,581.513C300.238,586.105 308.904,578.131 309.088,578.01L339.689,464.686L751.013,199.993C754.714,203.74 756.52,200.041 761.214,195.223C765.023,191.315 755.756,189.93 741.458,157.519C727.42,125.698 727.926,95.123 726.431,94.739C726.16,94.67 711.015,103.311 710.871,106.493C710.841,107.146 717.324,160.404 744.831,193.218C747.79,196.748 747.766,196.683 751.013,199.993L339.689,464.686L776.1,182.004C777.6,180.719 783.685,175.723 784.026,175.187C785.191,173.353 768.885,153.214 760.74,122.441C752.399,90.927 757.393,86.469 752.488,87.265C751.35,87.45 741.116,89.111 738.404,90.326C733.294,92.616 749.556,150.369 761.894,171.273C770.726,186.238 773.887,183.139 776.1,182.004L339.689,464.686L687.088,377.003C673.304,388.183 670.505,397.011 666.496,413.499C666.196,414.737 662.998,427.889 664.665,429.315C666.107,430.55 698.276,425.454 705.553,387.508C706.553,382.296 706.144,361.742 687.088,377.003L339.689,464.686L712.987,218.004C681.07,183.933 684.249,156.933 680.465,153.546C677.971,151.313 677.585,158.328 677.237,160.455C669.226,209.454 719.828,243.109 724.602,241.774C726.344,241.288 725.743,240.681 728.93,233.691C731.582,227.873 726.29,229.718 712.987,218.004L339.689,464.686L770.918,508.01C771.757,508.535 778.317,512.639 782.496,512.357C808.791,510.58 809.684,471.993 800.511,472.733C787.334,473.798 749.69,486.852 770.918,508.01L339.689,464.686L788.001,156.796C788.594,157.72 795.301,170.906 801.307,163.356C805.808,157.697 803.879,156.969 800.905,150.323C784.015,112.577 781.3,104.653 780.049,89.534C779.75,85.92 774.994,86.587 768.509,85.444C765.643,84.939 763.256,87.368 773.627,121.459C780.896,145.351 786.089,153.369 788.001,156.796L339.689,464.686L821.897,227.994C819.226,230.369 779.295,265.873 792.544,261.666C820.365,252.831 833.759,235.79 847.791,213.657C853.95,203.944 832.963,219.118 821.897,227.994L339.689,464.686L839.485,132.987C834.512,133.263 834.338,132.52 811.431,139.341C808.657,140.168 812.781,146.703 815.684,152.407C816.577,154.163 817.003,154.818 819.636,153.855C847.091,143.81 848.108,143.986 848.191,141.498C848.429,134.368 840.448,133.135 839.485,132.987L339.689,464.686L799.992,119.258C803.527,126.006 803.61,129.401 808.422,128.186C810.575,127.642 832.257,122.168 835.259,121.128C836.568,120.674 830.986,110.374 822.528,110.966C820.838,111.084 820.894,111.342 801.525,113.693C801.211,113.731 797.574,114.173 797.956,115.385C798.061,115.719 798.107,115.672 799.992,119.258L339.689,464.686L810.74,98.076C793.742,92.189 789.67,88.567 791.215,93.568C793.599,101.281 792.178,104.24 797.455,103.283C810.279,100.957 814.353,100.134 810.74,98.076L339.689,464.686Z" style="fill-opacity:1;"/>
    </g>
    <g transform="matrix(5.11235,0,0,5.11235,109.323047,210.883477)">
        <path d="M210.944,207.999C185.161,229.841 159.128,220.317 147.851,203.272C117.804,157.856 159.055,36.558 219.319,69.816C243.194,82.992 241.057,116.147 244.381,116.882C245.93,117.225 260.78,112.298 268.202,107.065C293.409,89.293 288.899,67.93 323.436,60.231C341.644,56.173 371.634,73.589 369.635,109.507C369.392,113.877 367.242,116.626 371.538,115.8C373.543,115.414 384.875,113.235 394.325,104.298C400.806,98.169 391.001,36.503 418.56,48.371C424.988,51.14 428.657,58.036 428.817,61.464C429.278,71.31 432.852,58.492 442.421,56.236C526.912,36.317 513.051,164.566 453.648,192.819C431.633,203.29 413.191,192.258 411.767,193.741C409.844,195.745 413.308,279.741 383.712,250.283C382.717,249.293 379.712,246.292 381.774,215.519C384.129,180.376 395.15,128.097 391.48,126.647C391.366,126.602 370.974,132.208 369.634,133.615C368.237,135.081 367.896,186.537 331.195,210.009C296.838,231.982 253.599,203.441 271.235,131.442C272.403,126.674 274.276,125.228 271.543,125.155C271.49,125.153 244.356,135.944 243.638,136.645C240.818,139.399 239.691,180.609 210.944,207.999L452.972,165.999C470.957,149.347 483.54,118.049 478.236,92.556C470.632,56.005 443.141,75.521 428.893,98.744C426.741,102.252 419.4,114.217 415.99,148.539C413.605,172.548 415.946,173.956 417.767,175.052C432.86,184.13 446.08,172.034 452.972,165.999L210.944,207.999L196.978,191.979C208.795,180.32 218.796,153.535 221.356,139.473C222.587,132.717 213.147,141.106 198.653,128.327C184.562,115.904 182.348,101.267 179.784,106.651C166.909,133.694 164.674,154.165 164.205,158.468C161.618,182.163 177.179,212.836 196.978,191.979L210.944,207.999L323.987,188.969C326.18,186.545 326.165,186.583 326.348,186.37C337.34,173.561 346.324,147.327 348.026,135.444C348.45,132.486 342.684,132.206 341.442,131.994C313.222,127.166 312.296,108.154 309.522,107.883C304.373,107.38 283.191,163.462 298.747,186.336C310.921,204.238 321.678,191.101 323.987,188.969L210.944,207.999L330.908,108.026C363.267,133.643 350.915,92.177 343.133,83.841C330.821,70.652 314.191,91.922 330.908,108.026L210.944,207.999L216.994,89.153C216.403,88.367 211.878,82.35 206.521,82.716C183.747,84.269 209.172,124.557 222.63,120.888C224.236,120.451 227.463,106.219 216.994,89.153L210.944,207.999Z" style="fill-opacity:1;"/>
    </g>
    <g transform="matrix(5.11235,0,0,5.11235,109.323047,210.883477)">
        <path d="M59.004,312.043C88.375,279.071 131.074,266.337 159.862,289.055C188.653,311.775 172.514,352.262 155.531,352.838C126.903,353.81 162.603,315.776 145.384,303.673C105,275.287 47.215,356.781 42.716,420.515C38.213,484.304 82.182,481.711 103.172,461.142C127.274,437.524 137.768,397.683 141.64,395.843C187.589,374.009 154.434,472.93 156.03,477.784C156.82,480.19 173.412,469.604 175.637,477.451C179.89,492.458 158.385,493.577 152.67,498.708C148.791,502.192 144.466,540.425 129.12,563.243C106.941,596.219 74.92,585.12 74.382,584.951C52.282,578.001 34.643,546.087 74.234,517.139C97.382,500.214 122.504,494.357 123.861,487.58C129.453,459.657 131.136,460.048 131.146,457.578C131.158,454.888 129.437,457.567 106.815,480.797C104.803,482.863 92.503,495.492 74.532,496.825C-2.985,502.575 -4.899,383.775 59.004,312.043L76.893,564.001C85.863,569.387 95.86,570.959 109.976,544.757C117.002,531.715 121.638,512.486 118.556,512.162C113.573,511.638 57.503,544.908 76.893,564.001L59.004,312.043Z" style="fill-opacity:1;"/>
    </g>
    <g transform="matrix(5.11235,0,0,5.11235,109.323047,210.883477)">
        <path d="M436.019,294.008C448.232,282.682 460.681,289.199 464.52,289.254C469.156,289.321 466.916,248.071 480.448,246.233C507.079,242.614 469.072,309.098 477.398,341.538C480.556,353.841 509.288,322.926 510.618,330.47C513.53,346.989 482.715,374.431 463.151,346.76C461.265,344.092 460.972,346.559 459.051,349.145C451.096,359.858 435.652,363.768 425.726,355.231C423.335,353.175 423.784,352.858 421.375,350.704C420.465,349.89 417.76,352.348 416.314,353.179C396.757,364.415 389.313,345.717 388.44,343.524C383.103,330.119 399.971,287.85 384.747,303.733C366.829,322.427 365.682,343.377 365.641,343.532C361.049,361.057 354.279,353.749 349.605,352.197C345.602,350.868 332.585,367.684 320.05,348.805C318.086,345.846 317.297,347.238 314.308,349.212C280.355,371.632 268.864,341.251 276.002,313.386C286.209,273.538 316.394,276.475 324.925,288.189C328.542,293.155 329.098,292.55 333.456,293.665C343.91,296.339 319.414,343.223 335.492,342.385C349.82,341.638 352.657,318.99 353.906,302.525C355.428,282.467 370.575,286.608 372.066,293.625C373.315,299.502 374.944,290.672 389.476,287.37C399.662,285.055 405.804,299.742 406.078,309.532C406.817,335.938 400.32,340.45 407.498,340.581C419.525,340.8 423.166,307.57 436.019,294.008L292.971,340.018C294.046,340.78 301.128,348.341 311.194,329.337C324.502,304.213 312.911,281.434 298.027,302.152C281.537,325.107 291.112,337.593 292.971,340.018L436.019,294.008L450.004,341.045C451.094,339.512 457.699,332.42 460.227,318.454C460.452,317.213 462.33,306.843 459.201,302.713C449.645,290.097 434.593,321.66 435.281,334.504C435.918,346.403 440.892,348.649 450.004,341.045L436.019,294.008Z" style="fill-opacity:1;"/>
    </g>
    <g transform="matrix(5.11235,0,0,5.11235,109.323047,210.883477)">
        <path d="M515.877,160.984C531.458,149.694 542.237,148.372 547.61,146.814C556.244,144.31 529.65,121.066 525.677,97.469C516.427,42.537 581.637,37.995 596.063,61.751C601.366,70.485 596.978,87.976 590.806,82.171C588.925,80.402 572.182,64.654 560.62,70.749C535.716,83.876 567.944,122.513 576.903,137.261C582.953,147.219 610.12,112.649 618.109,129.663C623.237,140.583 592.442,149.983 587.511,154.511C585.732,156.144 593.142,174.047 585.631,193.558C569.132,236.419 513.047,237.825 501.828,201.397C494.263,176.834 514.513,162.206 515.877,160.984L533.076,174.064C514.085,193.067 527.46,217.32 555.222,201.014C564.371,195.641 566.117,164.111 559.479,163.906C544.275,163.438 534.718,172.507 533.076,174.064L515.877,160.984Z" style="fill-opacity:1;"/>
    </g>
    <g transform="matrix(5.11235,0,0,5.11235,109.323047,210.883477)">
        <path d="M38.12,225C3.868,248.777 -11.418,206.146 15.389,199.108C22.569,197.223 25.31,199.76 26.796,192.565C32.964,162.699 33.959,162.904 43.845,83.543C46.076,65.64 45.056,65.586 51.767,24.54C51.887,23.807 52.788,1.716 67.499,1.441C75.869,1.284 81.911,9.557 82.083,16.518C82.24,22.851 81.658,22.736 64.846,124.553C52.484,199.423 49.269,201.924 54.466,203.583C112.287,222.034 129.168,198.094 128.068,218.468C127.745,224.457 117.62,232.549 108.53,232.94C75.454,234.362 47.5,216.799 42.79,220.854C42.411,221.18 42.444,221.162 38.12,225Z" style="fill-opacity:1;"/>
    </g>
    <g transform="matrix(5.11235,0,0,5.11235,109.323047,210.883477)">
        <path d="M217.834,345.001C198.078,328.102 223.563,305.251 238.406,314.657C258.608,327.46 243.143,357.848 217.834,345.001Z" style="fill-opacity:1;"/>
    </g>
    <g transform="matrix(5.11235,0,0,5.11235,109.323047,210.883477)">
        <path d="M662.047,538.221C660.817,540.812 660.856,543.424 655.441,542.87C651.791,542.497 648.616,528.003 648.773,535.546C648.818,537.71 650.807,554.073 647.351,555.115C639.686,557.424 640.034,553.562 640.033,545.5C640.031,519.494 639.215,517.514 643.436,517.077C651.983,516.191 652.57,526.92 655.995,533.105C658.899,538.351 660.101,514.893 670.569,517.179C674.472,518.032 673.687,519.668 673.688,545.5C673.688,545.987 674.463,553.959 672.271,555.02C669.451,556.385 664.863,556.066 664.689,552.489C664.134,541.098 666.475,527.708 662.047,538.221Z" style="fill-opacity:1;"/>
    </g>
    <g transform="matrix(5.11235,0,0,5.11235,109.323047,210.883477)">
        <path d="M698.984,524.2C707.137,540.104 696.021,560.774 677.406,554.73C675.558,554.13 675.959,553.311 675.938,520.526C675.937,519.701 675.935,516.073 685.496,516.626C694.845,517.166 697.611,522.315 698.984,524.2L687.949,523.004C686.132,521.313 684.83,521.108 684.859,523.522C685.143,547.346 684.644,547.33 684.862,549.388C685.362,554.1 700.069,536.447 687.949,523.004L698.984,524.2Z" style="fill-opacity:1;"/>
    </g>
    <g transform="matrix(5.11235,0,0,5.11235,109.323047,210.883477)">
        <path d="M728.853,518.001C730.089,519.669 730.106,519.807 730.034,551.498C730.02,557.646 720.991,556.391 720.856,552.479C720.575,544.33 722.876,541.999 718.487,541.815C717.967,541.793 712.29,541.555 712.19,543.45C712.022,546.6 714.105,555.676 707.51,555.822C700.43,555.979 704.303,551.727 703.074,526.498C702.712,519.066 702.338,515.532 709.517,517.435C715.498,519.02 708.981,534.742 714.457,534.964C714.975,534.985 720.688,535.216 720.789,533.564C721.558,521.039 717.894,516.846 725.495,516.985C727.356,517.019 727.242,517.166 728.853,518.001Z" style="fill-opacity:1;"/>
    </g>
</svg>
