<?xml version="1.0" encoding="UTF-8"?>
<svg id="Layer_1" data-name="Layer 1" xmlns="http://www.w3.org/2000/svg" viewBox="0 0 1002.18 191.45">
  <path d="M556.88,98.51l-3.35,15.77c-1.06,4.96-.82,14.84,2.08,16.33,3.33,1.71,8.47-2.88,11.48-6.92,8.2-11,12.26-24.28,21.27-34.51,9.48-10.76,20.94-10.95,33.04-4.19,1.08-2.25,1.98-4.19,3.28-5.74,2.41-2.87,6.57-2.78,8.96-.01,2.07,2.39,3.06,5.58,2.55,8.83l-5.9,37.93,17.05-12.36c1.99-10.65,6.56-20.19,14.08-27.61,9.52-9.4,20.96-10.05,31.67-1.22,1.64-3.61,4.46-6.27,8.39-5.78,7.5.93,4.45,13.64,3.17,22.22l-3.53,23.77,16.93-15.47,1.15-5.94,5.71-36.46c2.17-13.88,9.27-35.35,18.11-46.36,5.34-6.65,13.54-10.29,21.72-8.32,4.59,1.1,5.62,4.67,5.74,8.72.26,8.47-.44,16.43-2.85,24.7-3.39,11.64-8.43,22.24-14.42,32.8-4.9,8.64-10.33,16.32-17.09,23.56-1.89,2.02-3.74,4.59-4.31,7.28-1.09,5.12-.24,10.41,1.68,15.05,2.14,5.16,7.27,6.99,12.43,5.24,6.4-2.17,11.6-6.2,16.25-11.22,1.49-1.61,3.94-3.71,4.03-6.02.27-6.86.61-13.21,2.68-19.71,2.49-7.83,6.63-14.85,12.91-20.1,4.57-3.81,9.82-6.39,15.72-6.68,6.72-.34,11.97,3.76,13.32,10.27.97,4.67.32,9.31-.74,13.99-3.5,15.36-15.42,21.6-29.81,26.17.39,3.64,1.54,7.13,3.65,9.98,5.4,7.31,14.3,3.7,21.24-2,9.24-7.59,16.78-16.85,22.31-27.41,1.18-2.25,1.37-4.27.69-6.53-1.84-6.11-.32-12.26,3.8-16.95,7.06-8.05,18.94-10.21,27.94-4.27,4.86,3.21,8.25,7.25,6.11,12.37-.63,1.5-2.58,2.27-3.96,1.34l-6.42-4.34c-1.7-1.15-4.02-2.45-6.22-1.92-3.98.95-7.42,4.97-7.16,9.17.6,9.46,10.44,17.28,14.68,27.14,1.09.56,3.04.12,4.19-.6l10.99-6.87,4.56-2.5,9.71-4.5,13.72-7.22.27-.84c-16.38-4.33-28.51-16.72-32.94-32.8-5.02-18.21,1.31-35.48,15.15-47.87,16.22-14.52,42.68-12.35,59.15,1.96,13.91,12.08,18.64,30.68,12.61,48.19,1.73.2,3.56.24,4.94-.28l15.61-5.81c8.85-3.93,18.64-2.93,26.19,3.35.97.81,1.36,2.8.92,3.69-.57,1.18-2.27,2.01-3.76,1.59-3.63-1.01-5.99-6.66-13.99-4.81-4.99,1.16-9.91,2.9-14.57,5.23-5.57,2.79-11.65,3.75-17.63,4.03-3.57,5.32-7.07,10.57-12.27,14.29-8.81,6.3-18.53,9.88-29.44,10.75-4.76,4.43-10.16,7.99-15.92,11.04l-8.34,4.41-7.99,5.11c-5.15,3.29-10,6.52-15.89,8.51l.84,5.53c2.1,13.86-7.34,27.22-21.18,29.4-9.88,1.56-18.94-3.58-22.69-12.38-2.51-5.88-1.16-11.6,3.74-15.77s11.27-6.87,17.87-8.46l4.07-1.49c-2.81-5.42-5.58-9.87-10.05-14.64-5.23,10.41-12.13,18.97-20.76,26.5-11.96,10.44-29.1,17.68-40.51,4.51l-5.66-8.6c-6.78,8.42-15.93,14.52-26.57,16.07-7.43,1.08-14.12-1.77-18.01-7.97-2.49-3.97-3.33-8.13-4.4-13.21l-18.24,15.73c-.86.74-1.52,2.29-1.68,3.44-1.96,14.33-4.77,30.78-12.98,42.31-6.71,9.42-19.41,12.29-28.99,5.97-7.2-4.75-9.85-12.9-6.8-20.95,4.78-12.62,18.1-20.8,29.72-27.59l5.79-3.38,1.77-10.79-6.94,6.63c-6.14,5.86-20.66,9.94-28.35,2.83-2.61-2.42-3.82-5.55-5.41-9.15l-14.73,11.17c-1.76,1.34-3.01,2.58-3.28,4.98-1.79,16.12-7.1,34.16-20.14,44.25-4.77,3.69-10.62,5.59-16.52,4.87-9.56-1.17-15.61-9.66-13.3-19.03,2.98-12.08,15.42-22.42,26.2-28.55l11.37-6.46,1.72-13.71c.32-.85-.89-.74-1.05-.01-4.9,7.92-12.4,13.72-21.26,15.93-7.33,1.83-14.53-.94-18.16-7.41l-2.43-4.33c.16-.02-.86.13-1.06.17-3.39,5.69-9.34,11.48-16.05,13.42-7.67,2.21-14.56-1.2-17.23-8.69-1.99-5.58-2.08-11.66-1.13-17.78,1.82-11.77,4.82-23.12,8.68-34.36.92-2.68,4.68-3.13,6.81-2.53,6.77,1.89,3.48,12.55,1.71,20.91ZM904.87,12.45l5.83-6.14-10.29,1.9,4.46,4.24ZM914.64,19.1l9.51-10.14c-1.95-1.44-4.93-2.32-6.76-.84l-8.94,7.26,6.19,3.72ZM920.01,34.51c1.93-.64,1.77-4.05.56-4.87-7.18-4.89-14.25-9.23-20.67-15.01l-4.37-5.07-5.28,2.17c.37.96.93,2.42,1.48,2.97,5.84,5.86,22.64,21.67,28.28,19.81ZM925.25,25.72l8.01-10.33c.32-.42.54-1.66.25-2.04-1.58-2.08-5.3-1.44-7.21.64l-7.28,7.93c2.11,1.75,3.81,2.82,6.23,3.81ZM907.51,44.33c2.72,1.26,5.01,2.77,7.85,2.36,1.32-1.31,2.14-4.23,2.02-6.13-12.64-5.87-22.85-14.05-31.05-25.23l-4.39,3.67c-.36.3-1.12,1.25-.96,1.69l.61,1.65c7.64,8.41,16.13,15.81,25.92,21.98ZM922.07,83.26c-1-20.12,4.13-39.42,15.36-55.5l4.46-6.38c-.77-1.57-1.86-2.81-3.6-3.58-16.82,17.21-23.2,43.6-21.1,67.41,1.86.08,3.75-.45,4.88-1.95ZM733.51,89.8c13.18-15.58,21.64-33.84,26.38-53.14,1.11-4.5,1.72-11.83-.42-12.89-4.27-2.13-14.32,16.65-16.41,24.96l-6.22,24.75-3.33,16.32ZM912.82,58.18c.74-2.41,1-3.72.89-5.48-11.4-4.15-21.26-10.63-29.07-19.72l-7.12-8.3c-1.52,2.9-2.47,5.05-3.29,7.88,10.17,11.33,23.41,23.18,38.59,25.62ZM946.61,34.89c1.88-2.82,1.6-6.55-1.73-8.06-12.25,15.63-18.44,34.85-16.92,54.65,3.96.02,6.58-3.55,6.4-7.19-.69-13.61,4.79-28.17,12.25-39.39ZM912.37,66.3c.19-.67-.23-2.52-1.07-2.69-5.9-1.18-11.96-3.29-17.2-6.58-8.01-5.03-14.64-10.96-21.41-18.12-2.58,7.58-1.69,9.77,3.14,14.02,6.68,5.89,13.79,10.92,22.23,13.82,5.53,1.9,13.21,3.4,14.3-.45ZM939.82,72.15c8.69-8.33,11.21-21.16,10.14-33.32-4.25,6.37-6.08,13.25-7.95,20.32-1.11,4.21-2.23,8.26-2.19,13ZM910.41,74.08l-7.19-.28c-10.05-1.72-19.14-6.68-26.03-14.01-1.15-1.22-2.08-2.37-3.76-2.57,4.78,16.32,22.06,24.03,37.84,22.78-.02-2.21-.33-4-.85-5.93ZM798.89,75.74c-3.75-1.49-11.65,5.69-14.12,11.11s-4.11,11.82-4.28,17.99c18.42-2.02,24.88-26.53,18.4-29.1ZM690.73,103.18c1.84-4.34,1.02-8.73-2.61-11.33-5.44-3.9-11.91-3.19-16.6,1.89-6.97,7.56-10.69,18.26-10.08,28.7.12,2.11,1.6,4.37,2.85,5.18,8.72,5.6,22.15-14.31,26.43-24.43ZM618.7,104.24c1.08-2.55,1.85-5.85.79-8.37-2.27-5.4-8.58-7.09-13.91-4.65-18.01,8.23-20.12,32.61-11.65,36.81,8.94,4.43,20.8-14.41,24.77-23.79ZM847.21,142.9c6.09-6.2,5.07-17.2,1.25-16.55-7.23,1.24-17.67,5.27-17.59,11.39.05,4.09,3.07,6.75,6.4,8s7.15,0,9.94-2.84ZM684.77,146.95c-6.35,3.09-10.72,7.27-15.11,11.78-4.85,4.98-11.48,13.08-8.89,18.54.61,1.28,2.38,2.37,3.96,2.99,13.17,5.13,19.43-20.85,20.05-33.31ZM600.02,180.7c3.73-2.58,6.44-6.13,8.29-10.22,3.19-7.02,5.4-14.16,6.45-22.43-9.67,5.6-22.56,14.19-25.44,24.26-.87,3.06.16,6.37,2.11,7.88,2.57,1.98,5.53,1.82,8.58.5Z"/>
  <path d="M137.18,125.48c-5.56-10.62-4.33-23.49-.89-35.98l-14.82,5.89-2.73,11.34c-1.79,7.45-5.04,14.23-9.68,20.25-3.97,5.16-9.2,8.94-15.68,10.28-8.21,1.71-16.36-2.11-20.56-9.35-2.32-4-3.66-8.38-4.1-13.16-1.4-15.26,2.29-30.85,10.89-43.5,3.39-4.99,7.75-9.12,13.37-11.1,10.6-3.71,21.86,2.54,25.51,12.94,1.44,4.11,2.12,7.92,3.07,12.54,11.46-2.62,17.07-7.72,23.37-17.28,4.57-6.94,11.99-11.8,20.66-11.42,6.01.27,11.29,3.96,14.75,8.64,4.15,5.61,5.22,12.4,4.07,19.5,4.94-.56,9.66-2.55,13.13-6.39.89-2.37.99-5.75,1.14-8.45.36-6.65.9-18.14,5.78-19.48,5.52-1.51,10.2,3.25,10.38,8.94,1.61-1.18,3.14-3.15,4.82-3.89,4.13-1.82,8.83-2.05,13.23-1.58,12.67,1.35,18.46,12.76,18.4,25.16-.09,18.14-10.11,39.78-27.49,45.51-5.85,1.93-11.66,1-17.84-1.01l-1.53,18.68c-.3,3.67-1.5,7-2.84,10.32-1,1.2-2.26,2.55-3.34,2.71-2.94.46-7.38-2.51-7.54-6.6-.31-8.05.06-15.89,1.18-23.95l3.6-25.89.63-8.85-11.46,3.52c-1.47,16.11-7.53,33.16-22.33,40.16-9.61,4.54-20.29.84-25.19-8.53ZM226.83,110.06c10.82-10.54,17.15-29.55,10.41-42.86-2.06-4.06-6.58-5.25-10.67-2.9-7.93,4.56-13.52,12.62-15.8,21.65-2.05,8.12-2.93,16.01-3.17,24.44-.03,1.09.4,2.9.75,3.92,6.31,4.44,12.96,1.14,18.49-4.24ZM166.99,66.84c-1.34.12-3.01,1.21-3.87,2.46-2,2.93-1.57,6.66.45,9.6,2.73,3.97,9.45,7.64,11.43,5.71,3.01-2.93-1.55-18.38-8.01-17.77ZM111.39,87.33c1.29-6.3-.63-13.02-4.79-17.42-1.76-1.86-4.45-1.81-6.13-.95-4.91,2.51-.85,12.4,6.49,17.75,1.04.76,3,1.09,4.44.62ZM110.55,95.47c-11.04.04-15.05-7.66-20.58-15.97-4.22,8.48-6.94,16.82-8.18,25.76-.89,6.46.34,13.07,4.03,18.15,2.57,3.54,6.81,4.42,10.21,1.68,7.53-6.05,12.63-19.37,14.52-29.63ZM174.16,94.36c-1.49-.79-2.85-1.21-4.33-1.45-7.1-1.15-12.4-5.31-14.97-12.12-.92.73-1.95,1.77-2.41,2.78-5.35,11.84-10.52,32.39.08,40.33,9.33,7,20-18.78,21.62-29.54Z"/>
  <path d="M524.94,129.17l6.3-1.74c.8-.22,2.82-.15,3.31.6,1.59,2.47.34,6.22-2.48,7.41l-6.45,2.71c-1.76.74-2.79,1.88-3.33,3.8l-5.12,18.18c-1.57,5.58-4.29,10.49-8,14.87-6.81,8.07-18.11,11.23-27.64,6.6-7.36-3.58-11.05-11.75-8.5-19.33,3.97-11.8,18.39-18.66,29.55-23.84,2.17-1.08,4.98-2.42,6.22-4.27l3.81-16.13-13.63,13.7c-5.12,5.15-11.87,7.11-19.01,6.82-20.08-.82-27.64-20.52-26.28-39.49,1.53-21.34,10.82-41.58,25.89-56.69,11.83-11.87,30.34-18.98,45.28-9.88,11.15,6.8,13.73,21.84,4.8,31.38-2.5,2.67-6.82,3.19-9.63.88-.96-.79-1.15-3.4-.83-4.6l2.78-10.57c.6-2.28.49-5.55-1.28-7.24-4.61-4.39-11.23-4.8-17.01-2.32s-10.26,6.25-14.42,11.06c-11.47,13.29-18.88,29.95-20.91,47.48-.78,6.7-.36,13.03,1.87,18.99,2.71,7.25,9.6,10.83,17.05,9.13,6.26-1.43,11.18-5.23,15.09-10.35,4.49-5.87,7.93-12.21,10.9-19.01l4.03-9.23c2.62-1.52,5.47-2.31,8.5-1.67,6.22,3.06,4.59,16.59,2.98,24.34l-3.82,18.39ZM486.06,172.59c3.77,2.27,7.53,1.22,10.27-1.9,5.83-6.64,9.87-15.23,10.51-24.73-7.13,2.42-12.62,6.81-17.76,11.51s-8.26,11.95-3.02,15.12Z"/>
  <path d="M350.44,135.61c-3.4-.47-4.92-3.31-6.75-5.47-2.99,1.88-5.8,3.59-8.89,4.62-5.44,1.81-10.75-.93-12.34-6.68-2.42-8.79-.26-18.77,5.45-25.94,4.65-5.84,13.37-7.37,18.54-2,1.77,1.84,2.79,3.16,5.71,3.68.76,1.89.34,4.88-.1,7.06l-2.68,13.25c-.16.79.54,2.71,1.1,3.27.63.63,2.49.72,3.57.26,8.73-3.73,5.8-20,9.26-25.29.95-1.45,2.97-2.05,4.65-1.68,1.38.3,2.61,2.1,3.3,3.81,3.05-2.01,6.4-4.83,10.18-4.08,3.58.71,5.45,5.09,6.04,8.52,1.01,5.83-.33,11.3-.49,17.3,3.81,3.01,6.19-3.11,8.43-8.04l5.37-11.85c2.41-5.31,8.5-7.13,14.12-5.47.68.2,2.07.23,2.97.17l1.25-7.89c.92-5.79,1.87-13.04,6.42-13.59,1.3-.16,3.53.52,3.95,2.06.82,3.01.45,6.33-.3,9.39l-4.67,19.21c-1.38,5.68-2.47,16.23-.17,18.48.41.41,1.88.45,2.46.1l6.97-4.19,6.32-3.6c1.43,6.27-4.25,12.49-10.08,14.48-4.26,1.46-8.66.08-11.62-3.13l-2.68-2.89c-2.02,3.26-4.66,5.65-8.37,6.78-4.67,1.42-9.14-.31-12.13-4.46-2.93,2.08-6.09,3.98-9.5,3.18-5.29-1.24-7.86-6.73-7.35-11.95l2.1-14.67-.5-1.37c-.13-.37-1.17.02-1.65.24-5.4,5.31-9.25,11.81-10.56,19.38-.37,2.56-1.02,4.98-2.73,7.05-.8.97-3.14.54-4.2-.15-3.11-2.03-5.42,2.79-10.42,2.1ZM331.2,126.85c1.51,1.64,4.07.96,5.39-.46,8.28-8.94,7.83-22.19,2.91-22.69-5.42-.55-15.17,15.72-8.31,23.15ZM415.22,109.71c-.11-1.14-1.32-2.6-2.18-2.96-6.01-2.5-14.31,19.03-8.73,22.34,4.13,2.45,12-7.78,10.9-19.39Z"/>
  <path d="M309.34,91.34c3.35,5.2-8.56,9.42-14.97,12.82-.12,1.16-.07,2.87.18,4.2,1.87,9.98-1.15,19.99-8.82,26.64-5.86,5.09-13.6,7.06-21.06,5.4-6.56-1.45-11.3-6.19-13.23-11.79-2.33-6.78-.67-13.5,4.31-18.57,8.22-8.37,18.89-8.81,19.31-10.25.12-.43-.11-1.58-.35-1.96l-7.48-11.87c-6.69-10.61-6.52-25.96,4.88-32.14,6.8-3.69,15.02-3.83,21.8-.27,5.47,2.8,7.3,8.67,4.76,14.14l-1.33.95c-1.05.74-10.55-10.89-17.73-5.56-2.34,1.74-3.84,4.37-3.46,7.75.41,3.68,1.64,7.44,3.67,10.61l9.77,15.28c1.99-.11,3.69-.78,5.37-1.72l9.15-5.11c1.91-1.07,4.2-.12,5.22,1.46ZM279.3,126.35c3.39-4.95,3.53-11.38,1.95-16.95-8.03-1.03-15.81,3.83-18.34,11.34-.78,2.32-.5,4.87.79,6.98,2.91,4.76,12.88,2.6,15.6-1.37Z"/>
  <path d="M27.92,139.02c-2.38-.83-4.61-1.34-6.89-1.65-3.25,3.24-6.94,5.51-11.38,5.98-4.69.5-8.5-2.25-9.47-6.56s1.63-8.73,6.25-9.75l5.58-1.24c2.15-9.22,4.1-18.14,5.29-27.62l5.07-40.1,2.77-19.49c.4-2.84,1.05-5.74,2.6-8.06,2.02-3.03,5.79-3.91,8.79-1.98s4.36,5.54,3.74,9.27l-7.02,42.35-7.67,44.08-.16,4.43c10.83,3.84,21.92,5.08,33.43,3.46,1.02-.14,3.28.06,3.87.75.93,1.07,1.01,3.87.37,5-2.6,4.55-7.32,6.27-12.38,6.03-7.89-.38-15.18-2.24-22.82-4.91Z"/>
  <path d="M560.13,63.6c-3.88-.61-6.32-3.04-7.25-6.15-1.09-3.64.67-7.13,3.56-9.38,3.28-2.55,7.52-3.12,10.83-.6,3.5,2.66,4.78,6.87,3.21,10.75s-5.64,6.11-10.36,5.37Z"/>
  <path d="M780.55,157.33l-1.72,2.96c-.3.52-1.3,1.34-1.87,1.43-.67.11-1.97-.76-2.32-1.41l-1.89-3.46.22,8.6c.03,1.02-.84,2.25-1.8,2.59-.87.31-2.82-.21-2.81-1.54l.05-17.02c.66-.72,2.48-1.03,3.18-.75.78.32,2.03,1.53,2.39,2.37l2.66,6.31,3.05-6.51c.92-1.96,3.11-2.96,5.19-1.71.65,5.99.6,11.6.3,17.76l-2.12,1.17c-.57.32-2.33-.73-2.34-1.4l-.18-9.4Z"/>
  <path d="M813.43,166.65c.01.68-1.7,1.56-2.34,1.5-.75-.07-2.25-1.03-2.22-1.81l.19-5.05-4.42-.1-.08,4.56c-.01.83-1.1,2.1-1.84,2.35s-2.66-.39-2.66-1.19l-.11-17.18c0-.9,1.96-1.39,2.77-1.1,4.39,1.58-1.58,11.65,6.02,8.36l.21-7.43c.04-1.39,4.21-1.36,4.24.02l.25,17.07Z"/>
  <path d="M797.35,164.2c-2.49,3.84-7.05,4.88-10.96,3.03l-.02-17.73c3.58-2.19,9-1.16,11.25,2.43s2.14,8.54-.28,12.27ZM790.94,165.45c5.09-3.95,5.2-11.38-.04-14.82l.04,14.82Z"/>
</svg>